<svg width="20" height="20" viewBox="0 0 20 20" fill="none" xmlns="http://www.w3.org/2000/svg">
<path fill-rule="evenodd" clip-rule="evenodd" d="M2.5613 -2.15753e-05C2.5288 -2.15753e-05 2.4954 -0.00019156 2.4611 -0.00036156C2.0919 -0.00223156 1.6221 -0.00462164 1.2009 0.198488C0.849199 0.368078 0.531199 0.663668 0.336399 1.00205C0.1036 1.4063 0.0733986 1.849 0.0499992 2.19112L0.0438004 2.27868C0.0143013 2.68209 -0.000699997 3.08937 -0.000699997 3.49998C-0.000699997 12.6127 7.3866 20 16.4993 20C16.9099 20 17.3172 19.985 17.7206 19.9554L17.8081 19.9493C18.1503 19.9259 18.593 19.8957 18.9972 19.6629C19.3356 19.4681 19.6312 19.15 19.8008 18.7983C20.0039 18.3771 20.0015 17.9074 19.9996 17.5382C19.9995 17.5165 19.9994 17.4951 19.9993 17.4742C19.9993 17.462 19.9993 17.4499 19.9993 17.438V14.6207L19.9995 14.5351C20.0008 14.2259 20.0025 13.8379 19.8664 13.4835C19.749 13.1778 19.5583 12.9055 19.3111 12.6907C19.0245 12.4417 18.6593 12.3106 18.3683 12.2062L18.2878 12.1772L15.0548 11.0016C14.8568 10.9295 14.6604 10.8581 14.4873 10.8094C14.2945 10.7551 14.0647 10.7088 13.8027 10.7258C13.4333 10.7498 13.0779 10.8759 12.7759 11.0899C12.5617 11.2418 12.4125 11.4225 12.2969 11.5862C12.1932 11.7331 12.0857 11.9123 11.9773 12.093L11.9694 12.1061L10.8759 13.8285C8.8701 12.784 7.217 11.1295 6.171 9.1232L7.8932 8.0298L7.9063 8.022C8.087 7.91358 8.2662 7.80609 8.4131 7.70236C8.5767 7.5868 8.7575 7.43757 8.9093 7.22333C9.1234 6.92138 9.2494 6.56595 9.2735 6.19661C9.2905 5.93457 9.2442 5.7048 9.1899 5.51195C9.1412 5.33888 9.0697 5.1425 8.9977 4.9445L7.8221 1.71145L7.7931 1.63097C7.6886 1.33997 7.5575 0.974728 7.3085 0.688178C7.0937 0.440958 6.8215 0.250278 6.5158 0.132888C6.1614 -0.00319156 5.7733 -0.00156154 5.4642 -0.000261544L5.3786 -2.15753e-05H2.5613Z" fill="black"/>
</svg>
