<svg width="24" height="24" viewBox="0 0 24 24" fill="none" xmlns="http://www.w3.org/2000/svg">
<path d="M17.8401 4H6.16303C5.6359 3.99998 5.18111 3.99997 4.80654 4.03057C4.4112 4.06287 4.01798 4.13419 3.6396 4.32698C3.07511 4.6146 2.61617 5.07354 2.32855 5.63803C2.23281 5.82595 2.16702 6.01752 2.12109 6.2112L9.0063 10.8013C10.3547 11.7003 10.8242 11.9955 11.3026 12.1101C11.7622 12.2202 12.2413 12.2202 12.7008 12.1101C13.1792 11.9955 13.6487 11.7003 14.9971 10.8013L21.8821 6.21132C21.8362 6.0176 21.7704 5.82599 21.6746 5.63803C21.387 5.07354 20.9281 4.6146 20.3636 4.32698C19.9852 4.13419 19.592 4.06287 19.1966 4.03057C18.8221 3.99997 18.3673 3.99998 17.8401 4Z" fill="black"/>
<path d="M22 8.53536L15.9515 12.5678C14.8178 13.3243 14.035 13.8466 13.1653 14.055C12.3993 14.2386 11.6009 14.2386 10.8349 14.055C9.9652 13.8466 9.18245 13.3243 8.04872 12.5678L2 8.53522V15.8385C1.99998 16.3657 1.99997 16.8205 2.03057 17.195C2.06287 17.5904 2.13419 17.9836 2.32698 18.362C2.6146 18.9265 3.07354 19.3854 3.63803 19.673C4.01641 19.8658 4.40963 19.9371 4.80497 19.9694C5.17952 20 5.63425 20 6.16136 20H17.8385C18.3656 20 18.8205 20 19.195 19.9694C19.5904 19.9371 19.9836 19.8658 20.362 19.673C20.9265 19.3854 21.3854 18.9265 21.673 18.362C21.8658 17.9836 21.9371 17.5904 21.9694 17.195C22 16.8205 22 16.3657 22 15.8386V8.53536Z" fill="black"/>
</svg>
