<svg width="16" height="19" viewBox="0 0 16 19" fill="none" xmlns="http://www.w3.org/2000/svg">
<path d="M13.625 16.6875H10.557C10.9617 16.2969 11.3969 15.8508 11.8328 15.3492C14.0273 12.8258 15.1875 10.1539 15.1875 7.625C15.1875 5.71876 14.4302 3.89059 13.0823 2.54267C11.7344 1.19475 9.90624 0.4375 8 0.4375C6.09376 0.4375 4.26559 1.19475 2.91767 2.54267C1.56975 3.89059 0.8125 5.71876 0.8125 7.625C0.8125 11.5312 3.47813 14.8078 5.43594 16.6875H2.375C2.12636 16.6875 1.8879 16.7863 1.71209 16.9621C1.53627 17.1379 1.4375 17.3764 1.4375 17.625C1.4375 17.8736 1.53627 18.1121 1.71209 18.2879C1.8879 18.4637 2.12636 18.5625 2.375 18.5625H13.625C13.8736 18.5625 14.1121 18.4637 14.2879 18.2879C14.4637 18.1121 14.5625 17.8736 14.5625 17.625C14.5625 17.3764 14.4637 17.1379 14.2879 16.9621C14.1121 16.7863 13.8736 16.6875 13.625 16.6875ZM2.6875 7.625C2.6875 6.21604 3.24721 4.86478 4.2435 3.8685C5.23978 2.87221 6.59104 2.3125 8 2.3125C9.40896 2.3125 10.7602 2.87221 11.7565 3.8685C12.7528 4.86478 13.3125 6.21604 13.3125 7.625C13.3125 10.2273 11.75 12.5758 10.4453 14.0867C9.70042 14.9424 8.8822 15.7313 8 16.4445C7.1178 15.7313 6.29958 14.9424 5.55469 14.0867C4.25 12.5758 2.6875 10.2273 2.6875 7.625ZM8 11.0625C8.67987 11.0625 9.34448 10.8609 9.90977 10.4832C10.4751 10.1055 10.9157 9.5686 11.1758 8.94047C11.436 8.31235 11.5041 7.62119 11.3714 6.95438C11.2388 6.28757 10.9114 5.67506 10.4307 5.19432C9.94994 4.71358 9.33743 4.38619 8.67062 4.25355C8.00381 4.12091 7.31265 4.18899 6.68453 4.44916C6.0564 4.70934 5.51954 5.14993 5.14182 5.71523C4.76411 6.28052 4.5625 6.94513 4.5625 7.625C4.56353 8.53636 4.92603 9.41011 5.57046 10.0545C6.21489 10.699 7.08864 11.0615 8 11.0625ZM8 6.0625C8.30903 6.0625 8.61113 6.15414 8.86808 6.32583C9.12503 6.49752 9.3253 6.74155 9.44356 7.02706C9.56182 7.31257 9.59277 7.62673 9.53248 7.92983C9.47219 8.23292 9.32337 8.51133 9.10485 8.72985C8.88633 8.94837 8.60792 9.09719 8.30483 9.15748C8.00173 9.21777 7.68757 9.18682 7.40206 9.06856C7.11655 8.9503 6.87252 8.75003 6.70083 8.49308C6.52914 8.23613 6.4375 7.93403 6.4375 7.625C6.4375 7.2106 6.60212 6.81317 6.89515 6.52015C7.18817 6.22712 7.5856 6.0625 8 6.0625Z" fill="black"/>
</svg>
