<svg width="30" height="30" viewBox="0 0 30 30" fill="none" xmlns="http://www.w3.org/2000/svg">
<path d="M20.9337 12.7989C17.5109 13.7554 15 16.897 15 20.625C15 16.1376 11.3623 12.5 6.875 12.5H2.5M6.875 20.625H6.8875M23.125 20.625L18.75 5H16.25M19.4531 7.5H23.75M23.75 6.25V8.75M19.375 7.5L11.25 13.75M27.5 20.625C27.5 23.0412 25.5412 25 23.125 25C20.7088 25 18.75 23.0412 18.75 20.625C18.75 18.2088 20.7088 16.25 23.125 16.25C25.5412 16.25 27.5 18.2088 27.5 20.625ZM11.25 20.625C11.25 23.0412 9.29125 25 6.875 25C4.45875 25 2.5 23.0412 2.5 20.625C2.5 18.2088 4.45875 16.25 6.875 16.25C9.29125 16.25 11.25 18.2088 11.25 20.625ZM7.5 20.625C7.5 20.9701 7.22018 21.25 6.875 21.25C6.52982 21.25 6.25 20.9701 6.25 20.625C6.25 20.2799 6.52982 20 6.875 20C7.22018 20 7.5 20.2799 7.5 20.625Z" stroke="white" stroke-width="2" stroke-linecap="round" stroke-linejoin="round"/>
</svg>
