<svg width="21" height="22" viewBox="0 0 21 22" fill="none" xmlns="http://www.w3.org/2000/svg">
<path d="M20.1081 5.32808C20.0398 5.15941 19.9317 5.00981 19.7929 4.89211C19.6542 4.77441 19.4889 4.69212 19.3114 4.6523C19.1339 4.61248 18.9493 4.61631 18.7736 4.66347C18.5979 4.71063 18.4362 4.79972 18.3024 4.92308L14.6668 8.2812L13.4781 8.0262L13.2203 6.83464L16.5756 3.19902C16.6989 3.06527 16.788 2.9036 16.8352 2.72787C16.8823 2.55214 16.8862 2.36759 16.8463 2.19005C16.8065 2.01251 16.7242 1.84728 16.6065 1.70852C16.4888 1.56977 16.3392 1.46163 16.1706 1.39339C14.879 0.870836 13.4625 0.738432 12.0965 1.01256C10.7304 1.28669 9.47471 1.95533 8.48473 2.93573C7.49475 3.91613 6.81394 5.16528 6.52655 6.5286C6.23915 7.89193 6.35778 9.3096 6.86775 10.6062L1.42369 15.3125C1.40307 15.3303 1.38244 15.349 1.36369 15.3687C0.73927 16.0034 0.390934 16.8591 0.394559 17.7494C0.398185 18.6398 0.753477 19.4926 1.38305 20.1222C2.01261 20.7517 2.86545 21.107 3.75579 21.1106C4.64613 21.1143 5.50183 20.7659 6.1365 20.1415C6.15619 20.1228 6.17494 20.1021 6.19275 20.0815L10.8953 14.6375C12.1925 15.1484 13.6113 15.2675 14.9756 14.98C16.3399 14.6925 17.5899 14.011 18.5707 13.0199C19.5514 12.0289 20.2199 10.7719 20.4931 9.40462C20.7664 8.03736 20.6325 6.61998 20.1081 5.32808ZM13.5015 12.875C12.6777 12.875 11.8672 12.6667 11.1456 12.2693C10.9198 12.1449 10.6581 12.1017 10.4044 12.1471C10.1506 12.1925 9.92012 12.3237 9.7515 12.5187L4.52119 18.5703C4.30985 18.7816 4.0232 18.9003 3.72432 18.9003C3.42543 18.9003 3.13878 18.7816 2.92744 18.5703C2.7161 18.3589 2.59736 18.0723 2.59736 17.7734C2.59736 17.4745 2.7161 17.1879 2.92744 16.9765L8.98275 11.75C9.17805 11.5811 9.30933 11.3502 9.35456 11.0961C9.3998 10.8419 9.35624 10.5799 9.23119 10.354C8.82183 9.61167 8.61313 8.7754 8.62568 7.92776C8.63824 7.08012 8.87161 6.2504 9.30277 5.5205C9.73394 4.7906 10.348 4.18575 11.0843 3.76565C11.8206 3.34555 12.6538 3.12472 13.5015 3.12495H13.5849L11.1737 5.73777C11.0516 5.8702 10.9631 6.03 10.9156 6.20375C10.8682 6.37749 10.8631 6.5601 10.9009 6.7362L11.4315 9.20652C11.477 9.41829 11.5827 9.61241 11.7359 9.76558C11.889 9.91874 12.0832 10.0244 12.2949 10.07L14.7653 10.6006C14.9414 10.6384 15.124 10.6333 15.2977 10.5858C15.4715 10.5383 15.6313 10.4498 15.7637 10.3278L18.3765 7.91745C18.3765 7.94558 18.3765 7.97277 18.3765 8.00089C18.3748 9.2932 17.8606 10.5321 16.9467 11.4458C16.0328 12.3595 14.7938 12.8735 13.5015 12.875Z" fill="#979797"/>
</svg>
