<svg width="22" height="22" viewBox="0 0 22 22" fill="none" xmlns="http://www.w3.org/2000/svg">
<path d="M16.5599 13.912C16.4054 14.6764 15.9917 15.3639 15.3886 15.8583C14.7856 16.3526 14.0303 16.6235 13.2505 16.6252C11.1626 16.6229 9.1609 15.7925 7.68454 14.3162C6.20817 12.8398 5.37777 10.8381 5.37554 8.75016C5.37715 7.97038 5.64806 7.21509 6.14245 6.61206C6.63683 6.00903 7.32434 5.59527 8.08866 5.44079C8.33029 5.39297 8.58092 5.42578 8.8021 5.53417C9.02328 5.64255 9.20278 5.82053 9.31304 6.04079L10.3893 8.19704C10.4776 8.37417 10.5175 8.57145 10.5052 8.76898C10.4928 8.9665 10.4286 9.15727 10.319 9.32204L9.52023 10.5202C9.93147 11.3777 10.623 12.0692 11.4805 12.4805L12.6787 11.6817C12.8434 11.5721 13.0342 11.5079 13.2317 11.4955C13.4292 11.4832 13.6265 11.5231 13.8037 11.6114L15.9599 12.6877C16.1802 12.7979 16.3581 12.9774 16.4665 13.1986C16.5749 13.4198 16.6077 13.6704 16.5599 13.912ZM21.1255 11.0002C21.1259 12.7345 20.6808 14.4399 19.8328 15.9528C18.9848 17.4657 17.7624 18.7354 16.2828 19.6402C14.8032 20.545 13.116 21.0546 11.3829 21.1201C9.64978 21.1856 7.9289 20.8048 6.38522 20.0142L3.34491 21.0314C3.01394 21.143 2.65839 21.1598 2.31833 21.0802C1.97828 21.0005 1.66724 20.8274 1.42027 20.5804C1.1733 20.3335 1.00022 20.0224 0.920541 19.6824C0.840859 19.3423 0.857743 18.9868 0.969287 18.6558L1.98272 15.6155C1.28681 14.2523 0.908987 12.7491 0.877665 11.2189C0.846342 9.68873 1.16234 8.17134 1.80189 6.78084C2.44144 5.39035 3.3879 4.16294 4.57011 3.1909C5.75233 2.21886 7.13953 1.52749 8.62742 1.16876C10.1153 0.810029 11.6652 0.793284 13.1604 1.11978C14.6557 1.44628 16.0576 2.10752 17.2605 3.05379C18.4634 4.00006 19.4362 5.20673 20.1056 6.58308C20.7751 7.95943 21.1238 9.46964 21.1255 11.0002ZM18.8755 11.0002C18.8751 9.79223 18.5967 8.6006 18.0621 7.51745C17.5274 6.43429 16.7507 5.48865 15.7921 4.75368C14.8335 4.01871 13.7187 3.5141 12.5339 3.2789C11.3491 3.0437 10.1261 3.0842 8.95943 3.39728C7.79278 3.71037 6.71379 4.28763 5.80592 5.08442C4.89806 5.88121 4.18566 6.87617 3.72383 7.99233C3.26201 9.10848 3.06313 10.3159 3.1426 11.5212C3.22206 12.7265 3.57773 13.8974 4.1821 14.9433C4.26198 15.0812 4.31164 15.2345 4.32781 15.3931C4.34397 15.5516 4.32626 15.7118 4.27585 15.863L3.34491 18.6558L6.13772 17.7248C6.25261 17.6866 6.37288 17.667 6.49397 17.6667C6.69156 17.6671 6.88557 17.7195 7.05648 17.8186C8.25368 18.5113 9.61224 18.8765 10.9954 18.8774C12.3786 18.8783 13.7376 18.5149 14.9357 17.8237C16.1339 17.1325 17.1288 16.138 17.8204 14.9401C18.512 13.7422 18.8759 12.3833 18.8755 11.0002Z" fill="black"/>
</svg>
