<svg width="231" height="52" viewBox="0 0 231 52" fill="none" xmlns="http://www.w3.org/2000/svg">
<path d="M0 11.1376L18.9891 20.5281C18.9891 20.5281 21.5847 19.2178 24.112 17.9803C24.112 17.9803 24.5902 17.6891 24.5902 17.1068C24.5902 17.1068 24.5902 16.4516 23.9754 16.1604C23.9754 16.1604 15.4372 11.9384 6.89891 7.78907L22.1995 0.291232L23.4973 5.34058e-05L24.7268 0.291232L47.6776 11.5744C47.6776 11.5744 50 12.7391 50 14.2678C50 14.2678 50 15.7965 47.6776 16.8884L29.7131 25.6965L47.6776 34.5047C47.6776 34.5047 50 35.5966 50 37.2709C50 37.2709 50 38.7268 47.6776 39.9643L24.7268 51.1018C24.7268 51.1018 24.2486 51.5386 23.4973 51.5386L22.1995 51.1018L6.89891 43.6768L23.9754 35.3782L24.5902 34.4319C24.5902 34.4319 24.5902 33.9951 24.112 33.4856L18.9891 31.0105L0 40.4011V29.773L8.26503 25.6965L0 21.7656V11.1376Z" fill="white"/>
<path d="M73.78 34.24C72.66 34.24 71.62 34.0467 70.66 33.66C69.7 33.2733 68.86 32.7333 68.14 32.04C67.4333 31.3333 66.88 30.5133 66.48 29.58C66.08 28.6467 65.88 27.6333 65.88 26.54C65.88 25.4467 66.0733 24.4333 66.46 23.5C66.86 22.5667 67.4133 21.7533 68.12 21.06C68.84 20.3667 69.68 19.8267 70.64 19.44C71.6 19.0533 72.6467 18.86 73.78 18.86C74.9133 18.86 75.96 19.0533 76.92 19.44C77.88 19.8267 78.7133 20.3667 79.42 21.06C80.14 21.7533 80.6933 22.5667 81.08 23.5C81.48 24.4333 81.68 25.4467 81.68 26.54C81.68 27.6333 81.48 28.6467 81.08 29.58C80.68 30.5133 80.12 31.3333 79.4 32.04C78.6933 32.7333 77.86 33.2733 76.9 33.66C75.94 34.0467 74.9 34.24 73.78 34.24ZM73.78 31.44C74.46 31.44 75.0867 31.32 75.66 31.08C76.2467 30.84 76.76 30.5067 77.2 30.08C77.64 29.64 77.98 29.12 78.22 28.52C78.46 27.92 78.58 27.26 78.58 26.54C78.58 25.82 78.46 25.1667 78.22 24.58C77.98 23.98 77.64 23.46 77.2 23.02C76.76 22.58 76.2467 22.2467 75.66 22.02C75.0867 21.78 74.46 21.66 73.78 21.66C73.1 21.66 72.4667 21.78 71.88 22.02C71.3067 22.2467 70.8 22.58 70.36 23.02C69.92 23.46 69.58 23.98 69.34 24.58C69.1 25.1667 68.98 25.82 68.98 26.54C68.98 27.26 69.1 27.92 69.34 28.52C69.58 29.12 69.92 29.64 70.36 30.08C70.8 30.5067 71.3067 30.84 71.88 31.08C72.4667 31.32 73.1 31.44 73.78 31.44ZM83.8786 34V19.1H86.8786L92.4586 26.5H91.0586L96.4786 19.1H99.4786V34H96.3786V22.52L97.6186 22.8L91.8786 30.2H91.4786L85.9386 22.8L86.9786 22.52V34H83.8786ZM111.135 34.24C110.201 34.24 109.321 34.0733 108.495 33.74C107.681 33.3933 106.975 32.9067 106.375 32.28C105.788 31.6533 105.348 30.9133 105.055 30.06L107.595 28.92C107.968 29.7333 108.481 30.3733 109.135 30.84C109.801 31.3067 110.535 31.54 111.335 31.54C111.761 31.54 112.128 31.4733 112.435 31.34C112.741 31.2067 112.981 31.0267 113.155 30.8C113.328 30.56 113.415 30.28 113.415 29.96C113.415 29.6133 113.308 29.32 113.095 29.08C112.881 28.8267 112.548 28.6267 112.095 28.48L109.175 27.52C107.988 27.1333 107.095 26.5867 106.495 25.88C105.895 25.16 105.595 24.3 105.595 23.3C105.595 22.42 105.808 21.6467 106.235 20.98C106.675 20.3133 107.281 19.7933 108.055 19.42C108.841 19.0467 109.741 18.86 110.755 18.86C111.648 18.86 112.475 19.0133 113.235 19.32C113.995 19.6267 114.648 20.06 115.195 20.62C115.755 21.18 116.175 21.8533 116.455 22.64L113.935 23.78C113.655 23.0867 113.235 22.5467 112.675 22.16C112.115 21.76 111.475 21.56 110.755 21.56C110.341 21.56 109.975 21.6267 109.655 21.76C109.335 21.8933 109.088 22.0867 108.915 22.34C108.741 22.58 108.655 22.86 108.655 23.18C108.655 23.5267 108.768 23.8333 108.995 24.1C109.221 24.3533 109.561 24.5533 110.015 24.7L112.875 25.62C114.075 26.0067 114.968 26.5467 115.555 27.24C116.155 27.9333 116.455 28.78 116.455 29.78C116.455 30.6467 116.228 31.42 115.775 32.1C115.321 32.7667 114.695 33.2933 113.895 33.68C113.108 34.0533 112.188 34.24 111.135 34.24ZM117.368 34L122.408 19.1H126.528L131.568 34H128.188L127.188 30.96H121.728L120.728 34H117.368ZM122.588 28.26H126.328L124.048 21.22H124.888L122.588 28.26ZM133.117 34V19.1H136.217V34H133.117ZM142.453 34V19.1H145.453L151.033 26.5H149.633L155.053 19.1H158.053V34H154.953V22.52L156.193 22.8L150.453 30.2H150.053L144.513 22.8L145.553 22.52V34H142.453ZM168.155 34.24C167.035 34.24 165.995 34.0467 165.035 33.66C164.075 33.2733 163.235 32.7333 162.515 32.04C161.808 31.3333 161.255 30.5133 160.855 29.58C160.455 28.6467 160.255 27.6333 160.255 26.54C160.255 25.4467 160.448 24.4333 160.835 23.5C161.235 22.5667 161.788 21.7533 162.495 21.06C163.215 20.3667 164.055 19.8267 165.015 19.44C165.975 19.0533 167.022 18.86 168.155 18.86C169.288 18.86 170.335 19.0533 171.295 19.44C172.255 19.8267 173.088 20.3667 173.795 21.06C174.515 21.7533 175.068 22.5667 175.455 23.5C175.855 24.4333 176.055 25.4467 176.055 26.54C176.055 27.6333 175.855 28.6467 175.455 29.58C175.055 30.5133 174.495 31.3333 173.775 32.04C173.068 32.7333 172.235 33.2733 171.275 33.66C170.315 34.0467 169.275 34.24 168.155 34.24ZM168.155 31.44C168.835 31.44 169.462 31.32 170.035 31.08C170.622 30.84 171.135 30.5067 171.575 30.08C172.015 29.64 172.355 29.12 172.595 28.52C172.835 27.92 172.955 27.26 172.955 26.54C172.955 25.82 172.835 25.1667 172.595 24.58C172.355 23.98 172.015 23.46 171.575 23.02C171.135 22.58 170.622 22.2467 170.035 22.02C169.462 21.78 168.835 21.66 168.155 21.66C167.475 21.66 166.842 21.78 166.255 22.02C165.682 22.2467 165.175 22.58 164.735 23.02C164.295 23.46 163.955 23.98 163.715 24.58C163.475 25.1667 163.355 25.82 163.355 26.54C163.355 27.26 163.475 27.92 163.715 28.52C163.955 29.12 164.295 29.64 164.735 30.08C165.175 30.5067 165.682 30.84 166.255 31.08C166.842 31.32 167.475 31.44 168.155 31.44ZM180.328 34V21.8H176.548V19.1H187.148V21.8H183.428V34H180.328ZM195.538 34.24C194.418 34.24 193.378 34.0467 192.418 33.66C191.458 33.2733 190.618 32.7333 189.898 32.04C189.191 31.3333 188.638 30.5133 188.238 29.58C187.838 28.6467 187.638 27.6333 187.638 26.54C187.638 25.4467 187.831 24.4333 188.218 23.5C188.618 22.5667 189.171 21.7533 189.878 21.06C190.598 20.3667 191.438 19.8267 192.398 19.44C193.358 19.0533 194.404 18.86 195.538 18.86C196.671 18.86 197.718 19.0533 198.678 19.44C199.638 19.8267 200.471 20.3667 201.178 21.06C201.898 21.7533 202.451 22.5667 202.838 23.5C203.238 24.4333 203.438 25.4467 203.438 26.54C203.438 27.6333 203.238 28.6467 202.838 29.58C202.438 30.5133 201.878 31.3333 201.158 32.04C200.451 32.7333 199.618 33.2733 198.658 33.66C197.698 34.0467 196.658 34.24 195.538 34.24ZM195.538 31.44C196.218 31.44 196.844 31.32 197.418 31.08C198.004 30.84 198.518 30.5067 198.958 30.08C199.398 29.64 199.738 29.12 199.978 28.52C200.218 27.92 200.338 27.26 200.338 26.54C200.338 25.82 200.218 25.1667 199.978 24.58C199.738 23.98 199.398 23.46 198.958 23.02C198.518 22.58 198.004 22.2467 197.418 22.02C196.844 21.78 196.218 21.66 195.538 21.66C194.858 21.66 194.224 21.78 193.638 22.02C193.064 22.2467 192.558 22.58 192.118 23.02C191.678 23.46 191.338 23.98 191.098 24.58C190.858 25.1667 190.738 25.82 190.738 26.54C190.738 27.26 190.858 27.92 191.098 28.52C191.338 29.12 191.678 29.64 192.118 30.08C192.558 30.5067 193.064 30.84 193.638 31.08C194.224 31.32 194.858 31.44 195.538 31.44ZM205.636 34V19.1H211.336C212.363 19.1 213.27 19.28 214.056 19.64C214.856 20 215.483 20.5333 215.936 21.24C216.39 21.9467 216.616 22.82 216.616 23.86C216.616 24.8733 216.383 25.74 215.916 26.46C215.45 27.1667 214.823 27.7 214.036 28.06L217.436 34H213.956L210.276 27.42L212.276 28.6H208.736V34H205.636ZM208.736 25.9H211.356C211.796 25.9 212.176 25.8133 212.496 25.64C212.816 25.4667 213.063 25.2267 213.236 24.92C213.423 24.6133 213.516 24.26 213.516 23.86C213.516 23.4467 213.423 23.0867 213.236 22.78C213.063 22.4733 212.816 22.2333 212.496 22.06C212.176 21.8867 211.796 21.8 211.356 21.8H208.736V25.9ZM224.396 34.24C223.463 34.24 222.583 34.0733 221.756 33.74C220.943 33.3933 220.236 32.9067 219.636 32.28C219.05 31.6533 218.61 30.9133 218.316 30.06L220.856 28.92C221.23 29.7333 221.743 30.3733 222.396 30.84C223.063 31.3067 223.796 31.54 224.596 31.54C225.023 31.54 225.39 31.4733 225.696 31.34C226.003 31.2067 226.243 31.0267 226.416 30.8C226.59 30.56 226.676 30.28 226.676 29.96C226.676 29.6133 226.57 29.32 226.356 29.08C226.143 28.8267 225.81 28.6267 225.356 28.48L222.436 27.52C221.25 27.1333 220.356 26.5867 219.756 25.88C219.156 25.16 218.856 24.3 218.856 23.3C218.856 22.42 219.07 21.6467 219.496 20.98C219.936 20.3133 220.543 19.7933 221.316 19.42C222.103 19.0467 223.003 18.86 224.016 18.86C224.91 18.86 225.736 19.0133 226.496 19.32C227.256 19.6267 227.91 20.06 228.456 20.62C229.016 21.18 229.436 21.8533 229.716 22.64L227.196 23.78C226.916 23.0867 226.496 22.5467 225.936 22.16C225.376 21.76 224.736 21.56 224.016 21.56C223.603 21.56 223.236 21.6267 222.916 21.76C222.596 21.8933 222.35 22.0867 222.176 22.34C222.003 22.58 221.916 22.86 221.916 23.18C221.916 23.5267 222.03 23.8333 222.256 24.1C222.483 24.3533 222.823 24.5533 223.276 24.7L226.136 25.62C227.336 26.0067 228.23 26.5467 228.816 27.24C229.416 27.9333 229.716 28.78 229.716 29.78C229.716 30.6467 229.49 31.42 229.036 32.1C228.583 32.7667 227.956 33.2933 227.156 33.68C226.37 34.0533 225.45 34.24 224.396 34.24Z" fill="white"/>
</svg>
